<svg width="132" height="48" viewBox="0 0 132 48" fill="none" xmlns="http://www.w3.org/2000/svg">
<path d="M21.3032 11H12V22.4807L15.0205 22.4606L12.1432 36.8903C12.1221 36.9957 12.2665 37.0448 12.3122 36.9478L20.9364 18.7202H18.4646V16.4756H21.4127C23.7844 16.4756 25.7071 18.4246 25.7071 20.8283C25.7071 23.2323 23.7844 25.181 21.4127 25.181H21.1908L18.6 30.6568H21.3032C26.6586 30.6568 31 26.2565 31 20.8285V20.8283C31 15.4004 26.6586 11 21.3032 11Z" fill="#F8EF00"/>
<path d="M40.344 33V15.744H54.144C54.784 15.744 55.36 15.904 55.872 16.224C56.4 16.528 56.824 16.944 57.144 17.472C57.464 18 57.624 18.576 57.624 19.2V23.76C57.624 24.384 57.464 24.96 57.144 25.488C56.824 26 56.4 26.416 55.872 26.736C55.36 27.04 54.784 27.192 54.144 27.192L43.8 27.216V33H40.344ZM43.944 23.712H53.976C54.024 23.712 54.056 23.704 54.072 23.688C54.104 23.656 54.12 23.624 54.12 23.592V19.344C54.12 19.296 54.104 19.264 54.072 19.248C54.056 19.216 54.024 19.2 53.976 19.2H43.944C43.896 19.2 43.856 19.216 43.824 19.248C43.808 19.264 43.8 19.296 43.8 19.344V23.592C43.8 23.624 43.808 23.656 43.824 23.688C43.856 23.704 43.896 23.712 43.944 23.712ZM59.3764 33V15.72H75.3124V19.2H62.8804V22.608H72.8884V26.112H62.8804V29.52H75.3124V33H59.3764ZM87.2074 33L77.1994 15.72H81.2074L88.6954 28.704L96.1834 15.72H100.191L90.1834 33H87.2074ZM101.798 33V15.696H105.254V29.52H119.078V33H101.798Z" fill="#F8EF00"/>
</svg>
